<svg width="100%"
  height="100%" viewBox="0 0 7282 938" version="1.1" xmlns="http://www.w3.org/2000/svg"
  xmlns:xlink="http://www.w3.org/1999/xlink"
  style="fill-rule:evenodd;clip-rule:evenodd;stroke-linejoin:round;stroke-miterlimit:2;">
  <g id="fläche">
    <path
      d="M259.068,467.601c0.588,-140.892 77.122,-276.881 210.517,-346.754c191.999,-100.569 429.527,-26.341 530.097,165.658c100.57,191.999 26.341,429.527 -165.658,530.097c-58.195,30.483 -120.572,44.916 -182.051,44.862c-87.095,-0.076 -651.862,-0.975 -651.862,-0.975l-0.111,75.982c-0,-0 564.807,0.899 651.907,0.976c73.405,0.064 147.889,-17.141 217.373,-53.538c229.147,-120.028 317.738,-403.513 197.71,-632.66c-120.028,-229.147 -403.514,-317.737 -632.661,-197.709c-159.175,83.377 -250.541,245.622 -251.242,413.744l75.981,0.317Zm152.155,-0.357c0.361,-86.361 47.265,-169.72 129.03,-212.549c117.679,-61.64 263.264,-16.144 324.905,101.534c61.641,117.679 16.145,263.264 -101.534,324.905c-35.688,18.693 -73.939,27.542 -111.639,27.498c-56.329,-0.067 -651.915,-0.156 -651.915,-0.156l-0.03,75.982c0,-0 595.53,0.089 651.855,0.156c49.634,0.059 100.001,-11.562 146.985,-36.173c154.827,-81.099 214.684,-272.641 133.585,-427.468c-81.099,-154.826 -272.641,-214.684 -427.468,-133.585c-107.545,56.333 -169.281,165.949 -169.755,279.539l75.981,0.317Zm152.022,0.452c0.133,-31.828 17.409,-62.558 47.543,-78.343c43.36,-22.711 97.001,-5.948 119.712,37.411c22.712,43.359 5.949,97 -37.41,119.712c-13.141,6.883 -27.223,10.15 -41.105,10.133c-25.604,-0.03 -651.914,-0.146 -651.914,-0.146l-0.031,75.982c-0,0 626.252,0.116 651.855,0.146c25.815,0.031 52.014,-6.007 76.451,-18.808c80.507,-42.17 111.632,-141.768 69.462,-222.275c-42.17,-80.507 -141.768,-111.632 -222.276,-69.462c-55.915,29.289 -88.022,86.275 -88.268,145.333l75.981,0.317Z"
      style="fill:currentColor;" />
  </g>
  <g>
    <path
      d="M1438.91,227.3c0,31.534 0.001,173.736 0.001,173.736c0,0 19.375,-18.779 19.372,-18.774l-2.061,2.074c44.711,-34.167 100.544,-54.423 160.661,-54.423c147.312,0 265.527,118.417 265.527,264.962c0,146.537 -118.224,265.911 -265.527,265.911c-146.342,-0 -264.579,-119.365 -264.579,-265.911l-0.001,-367.575c0,0 86.607,0 86.607,0Zm0,367.575c0,98.526 79.585,179.144 177.973,179.144c99.296,0 178.911,-80.606 178.911,-179.144c0,-98.516 -79.627,-178.205 -178.911,-178.205c-98.376,0 -177.973,79.701 -177.973,178.205Z"
      style="fill:currentColor;" />
    <path
      d="M2435.02,444.813l-306.892,306.891l14.159,6.428c22.515,10.221 47.513,15.918 73.831,15.918c75.278,0 139.761,-46.586 166.166,-112.477c-0,0.001 91.045,-0.194 91.045,-0.194c-29.464,114.548 -133.52,199.293 -257.211,199.293c-146.565,0 -265.557,-118.992 -265.557,-265.557c0,-146.565 118.992,-265.557 265.557,-265.557c90.792,0 171,45.665 218.902,115.255Zm-369.806,247.529l248.131,-248.131l-12.772,-6.857c-25.162,-13.507 -53.92,-21.174 -84.455,-21.174c-98.757,-0 -178.935,80.178 -178.935,178.935c-0,30.535 7.667,59.293 21.175,84.455l6.856,12.772Z"
      style="fill:currentColor;" />
    <path
      d="M2992.32,856.09l-0,-259.338c-0,-98.516 -79.594,-179.144 -177.982,-179.144c-98.389,0 -177.973,80.628 -177.973,179.144l-0,259.338c-0,0.001 -86.617,0.001 -86.617,0.001c0,-0 0,-261.216 0,-261.216c0,-146.554 118.23,-264.033 264.59,-264.033c146.342,-0 264.589,119.365 264.589,265.91l-0,259.338c-0,0.001 -86.607,0 -86.607,0Z"
      style="fill:currentColor;" />
    <path
      d="M3686.83,594.877c0,146.546 -118.237,265.911 -264.58,265.911c-146.343,-0 -265.527,-119.374 -265.527,-265.911c0,-146.545 119.175,-264.962 265.527,-264.962c60.116,0 115.942,20.249 160.653,54.419l17.311,13.231l-0,-170.263c-0,0 86.616,0 86.616,0c-0,0 0,367.575 0,367.575Zm-264.58,-178.205c-98.389,0 -178.92,79.68 -178.92,178.205c0,98.538 80.519,179.144 178.92,179.144c98.38,0 177.964,-80.618 177.964,-179.144c-0,-98.513 -79.596,-178.205 -177.964,-178.205Z"
      style="fill:currentColor;" />
    <path
      d="M4285.05,660.648c-29.213,115.17 -133.565,200.14 -256.866,200.14c-146.324,-0 -265.517,-119.374 -265.517,-265.911c-0,-146.545 119.184,-264.962 265.517,-264.962c123.951,0 228.74,85.867 257.316,201.188c-0,-0.001 -90.891,-0.001 -90.891,-0.001c-26.041,-66.801 -90.789,-114.43 -166.425,-114.43c-98.38,0 -178.91,79.68 -178.91,178.205c-0,98.538 80.518,179.144 178.91,179.144c75.013,0 139.301,-46.857 165.765,-113.374c-0,0.001 91.101,0.001 91.101,0.001Z"
      style="fill:currentColor;" />
    <path
      d="M4371.51,856.09l0,-449.19l86.607,0l-0,449.191l-86.607,-0.001Zm43.304,-516.673c-31.08,0 -55.492,-24.46 -55.492,-55.593c-0,-30.011 24.412,-55.584 55.492,-55.584c31.079,0 55.491,25.573 55.491,55.584c0,31.133 -24.412,55.593 -55.491,55.593Z"
      style="fill:currentColor;" />
    <path
      d="M4824.73,415.651l-8.536,0.077c-98.41,0.896 -178.051,80.607 -178.051,179.145l0,261.216l-86.616,-0c0,-0 0,-261.216 0,-261.216c0,-146.52 118.206,-264.931 264.532,-265.901l8.671,-0.058l-0,86.737Z"
      style="fill:currentColor;" />
    <path
      d="M5378.25,660.648c-29.213,115.17 -133.564,200.14 -256.866,200.14c-146.324,-0 -265.517,-119.374 -265.517,-265.911c-0,-146.545 119.185,-264.962 265.517,-264.962c123.951,0 228.74,85.867 257.316,201.188c0,-0.001 -90.89,-0.001 -90.89,-0.001c-26.042,-66.801 -90.789,-114.43 -166.426,-114.43c-98.38,0 -178.91,79.68 -178.91,178.205c-0,98.538 80.519,179.144 178.91,179.144c75.013,0 139.302,-46.857 165.765,-113.374c0,0.001 91.101,0.001 91.101,0.001Z"
      style="fill:currentColor;" />
    <path
      d="M5544.09,335.541l0,259.338c0,98.526 79.594,179.144 177.983,179.144c98.388,0 177.973,-80.618 177.973,-179.144l-0,-259.338c-0,-0 86.616,-0 86.616,-0c-0,-0 -0,261.216 -0,261.216c-0,146.563 -118.239,264.033 -264.589,264.033c-146.343,-0 -264.59,-119.365 -264.59,-265.911l0,-259.338c0,-0 86.607,-0 86.607,-0Z"
      style="fill:currentColor;" />
    <path
      d="M6167.28,228.24l-0,366.636c-0,98.548 79.65,178.249 178.061,179.145l8.535,0.077l-0,86.689l-8.614,-0c-146.342,-0 -264.589,-119.365 -264.589,-265.911l-0,-366.636l86.607,0Z"
      style="fill:currentColor;" />
    <path
      d="M6827.48,856.091c0,-13.064 -0,-63.748 -0,-63.748c-0,-0 -19.221,15.894 -19.21,15.88l1.898,-1.864c-44.711,34.172 -100.544,54.427 -160.661,54.427c-146.333,-0 -265.526,-119.374 -265.526,-265.911c-0,-146.545 119.184,-264.962 265.526,-264.962c146.352,0 264.58,118.408 264.58,264.962l0,261.216l-86.607,0Zm0,-261.216c0,-98.504 -79.596,-178.205 -177.973,-178.205c-98.38,0 -178.91,79.689 -178.91,178.205c-0,98.538 80.519,179.144 178.91,179.144c98.389,0 177.973,-80.618 177.973,-179.144Z"
      style="fill:currentColor;" />
    <path
      d="M7281.69,415.651l-8.535,0.077c-98.41,0.896 -178.051,80.607 -178.051,179.145l0,261.216l-86.616,-0c-0,-0 -0,-261.216 -0,-261.216c-0,-146.52 118.206,-264.931 264.532,-265.901l8.67,-0.058l0,86.737Z"
      style="fill:currentColor;" />
  </g>
</svg>
