<svg width="20" height="18" viewBox="0 0 20 18" fill="none" xmlns="http://www.w3.org/2000/svg">
<path d="M9.00313 9.90938C9.12187 10.0312 9.31875 10.0312 9.44063 9.9125L13.1219 6.2625C13.2437 6.14375 13.2437 5.94687 13.125 5.825L12.4 5.09375C12.2812 4.97187 12.0844 4.97187 11.9625 5.09062L9.23125 7.8L8.04688 6.60625C7.92812 6.48438 7.73125 6.48438 7.60938 6.60313L6.87813 7.32812C6.75625 7.44688 6.75625 7.64375 6.875 7.76562L9.00313 9.90938ZM18.5 9.5H16V2.19375C16 1.53438 15.5469 1 14.9906 1H5.00938C4.45312 1 4 1.53438 4 2.19375V9.5H1.5C0.671875 9.5 0 10.1719 0 11V15.5C0 16.3281 0.671875 17 1.5 17H18.5C19.3281 17 20 16.3281 20 15.5V11C20 10.1719 19.3281 9.5 18.5 9.5ZM14.5 2.5V12.5H5.5V2.5H14.5ZM18.5 15.5H1.5V11H4V12.5H3.3C3.13437 12.5 3 12.6125 3 12.75V13.75C3 13.8875 3.13437 14 3.3 14H16.7C16.8656 14 17 13.8875 17 13.75V12.75C17 12.6125 16.8656 12.5 16.7 12.5H16V11H18.5V15.5Z" fill="currentColor"/>
</svg>
