<svg width="20" height="20" viewBox="0 0 20 20" fill="none" xmlns="http://www.w3.org/2000/svg">
<path d="M19.7991 9.6928L11.2446 2.46352C10.8948 2.16401 10.4541 2 9.99906 2C9.54398 2 9.10329 2.16401 8.75357 2.46352L0.198999 9.6928C0.143047 9.74097 0.0968667 9.8 0.0630953 9.86653C0.0293239 9.93306 0.00862287 10.0058 0.00217422 10.0805C-0.00427442 10.1553 0.00365566 10.2306 0.0255116 10.3022C0.0473676 10.3738 0.0827214 10.4403 0.129554 10.4978L0.485112 10.9372C0.579675 11.0533 0.715194 11.126 0.861886 11.1394C1.00858 11.1528 1.15444 11.1058 1.26741 11.0086L2.22123 10.2028V16.8571C2.22206 17.1599 2.33939 17.4502 2.54758 17.6643C2.75578 17.8785 3.03792 17.9992 3.33235 18H7.77682C8.07126 17.9992 8.3534 17.8785 8.56159 17.6643C8.76979 17.4502 8.88712 17.1599 8.88794 16.8571V13.1426H11.1102V16.8571C11.111 17.1599 11.2283 17.4502 11.4365 17.6643C11.6447 17.8785 11.9269 17.9992 12.2213 18H16.6658C16.9588 17.9994 17.2398 17.8799 17.4478 17.6676C17.6558 17.4552 17.7741 17.1671 17.7769 16.8657V10.2021L18.7328 11.01C18.8458 11.1072 18.9916 11.1543 19.1383 11.1409C19.285 11.1275 19.4205 11.0547 19.5151 10.9386L19.8703 10.4996C19.9173 10.4419 19.9528 10.3752 19.9746 10.3034C19.9965 10.2316 20.0043 10.156 19.9977 10.081C19.9911 10.006 19.9702 9.93314 19.9361 9.86652C19.902 9.7999 19.8555 9.74087 19.7991 9.6928ZM16.105 16.2856H12.7769V12.5712C12.776 12.2683 12.6587 11.9781 12.4505 11.7639C12.2423 11.5498 11.9602 11.4291 11.6657 11.4282H8.33238C8.03795 11.4291 7.75581 11.5498 7.54762 11.7639C7.33942 11.9781 7.22209 12.2683 7.22127 12.5712V16.2856H3.88791V8.7949L9.99906 3.62965L16.1102 8.79276L16.105 16.2856Z" fill="#223269"/>
</svg>
