<svg width="20" height="18" viewBox="0 0 20 18" fill="none" xmlns="http://www.w3.org/2000/svg">
<path d="M17.0027 8C18.3841 8 19.503 6.88125 19.503 5.5C19.503 4.11875 18.3841 3 17.0027 3C15.6212 3 14.5023 4.11875 14.5023 5.5C14.5023 6.88125 15.6212 8 17.0027 8ZM17.0027 4.5C17.5527 4.5 18.0028 4.95 18.0028 5.5C18.0028 6.05 17.5527 6.5 17.0027 6.5C16.4526 6.5 16.0025 6.05 16.0025 5.5C16.0025 4.95 16.4526 4.5 17.0027 4.5ZM3.00047 8C4.38193 8 5.50086 6.88125 5.50086 5.5C5.50086 4.11875 4.38193 3 3.00047 3C1.619 3 0.500078 4.11875 0.500078 5.5C0.500078 6.88125 1.619 8 3.00047 8ZM3.00047 4.5C3.55055 4.5 4.00062 4.95 4.00062 5.5C4.00062 6.05 3.55055 6.5 3.00047 6.5C2.45038 6.5 2.00031 6.05 2.00031 5.5C2.00031 4.95 2.45038 4.5 3.00047 4.5ZM15.3899 11.0906C14.5304 9.81562 12.8676 9.34063 11.3955 9.7875C10.9517 9.92188 10.486 9.99687 9.99843 9.99687C9.51086 9.99687 9.04516 9.92188 8.60134 9.7875C7.12924 9.34063 5.46648 9.8125 4.60697 11.0906C4.21941 11.6656 3.99437 12.3563 3.99437 13.1V14.5C3.99437 15.3281 4.66635 16 5.49461 16H14.496C15.3243 16 15.9962 15.3281 15.9962 14.5V13.1C16.0025 12.3563 15.7775 11.6656 15.3899 11.0906ZM14.5023 14.5H5.50086V13.1C5.50086 11.9625 6.4135 11.0312 7.54493 11C8.34193 11.3313 9.16705 11.5 10.0016 11.5C10.8361 11.5 11.6612 11.3313 12.4582 11C13.5896 11.0312 14.5023 11.9594 14.5023 13.1V14.5ZM17.3777 9H16.6276C16.0869 9 15.5837 9.16562 15.1649 9.44687C15.5837 9.7625 15.9525 10.1406 16.24 10.5781C16.3619 10.5344 16.4901 10.5 16.6245 10.5H17.3746C17.9934 10.5 18.4998 11.0063 18.4998 11.625C18.4998 12.0375 18.8373 12.375 19.2499 12.375C19.6624 12.375 20 12.0375 20 11.625C20.0031 10.1781 18.8248 9 17.3777 9ZM10.0016 9C11.9362 9 13.5021 7.43437 13.5021 5.5C13.5021 3.56562 11.9362 2 10.0016 2C8.06688 2 6.50101 3.56562 6.50101 5.5C6.50101 7.43437 8.06688 9 10.0016 9ZM10.0016 3.5C11.1049 3.5 12.0019 4.39687 12.0019 5.5C12.0019 6.60313 11.1049 7.5 10.0016 7.5C8.89826 7.5 8.00125 6.60313 8.00125 5.5C8.00125 4.39687 8.89826 3.5 10.0016 3.5ZM4.83825 9.44687C4.41944 9.16562 3.91624 9 3.37553 9H2.62541C1.17831 9 0 10.1781 0 11.625C0 12.0375 0.337553 12.375 0.750117 12.375C1.16268 12.375 1.50023 12.0375 1.50023 11.625C1.50023 11.0063 2.00656 10.5 2.62541 10.5H3.37553C3.51305 10.5 3.64119 10.5344 3.75996 10.5781C4.05063 10.1406 4.41944 9.7625 4.83825 9.44687Z" fill="currentColor"/>
</svg>
